<?xml version="1.0" encoding="UTF-8"?>
<svg id="Lag_2" data-name="Lag 2" xmlns="http://www.w3.org/2000/svg" viewBox="0 0 83.2 52.51">
  <defs>
    <style>
      .cls-1 {
        fill: #1e1713;
        opacity: 0.2;
      }
    </style>
  </defs>
  <g id="Layer_2" data-name="Layer 2">
    <path class="cls-1" d="m54.29,3.87l-8.27-3.87h16.16l-7.89,3.87Zm4.46,10.95l-9.49,21.58,20.63-21.58h-11.14Zm9.23-1.97l-11.75-5.83,2.52,5.83h9.22Zm-26.38-.2l10.75-7.51L41.6.1l-10.75,5.04,10.75,7.51Zm-17.16.2l2.52-5.83-11.75,5.83h9.23Zm4.87-6.41l-2.78,6.41h11.96l-9.18-6.41Zm15.41,6.41h11.95l-2.78-6.41-9.18,6.41Zm38.16,0l-10.21-7.82.41,7.82h9.8Zm-11.74-.62l-.46-8.72-4.37-3.35-9.79,4.81,14.62,7.26Zm-24.55,25.5l10.07-22.9h-13.93l3.85,22.9Zm-4.99-18.13l-3.59,21.35,3.59,11.57,3.59-11.57-3.59-21.35ZM0,14.82l22.97,20.51L10.49,14.82H0Zm16.47,6.12l11.43,18.79,11.42,10.2-3.13-8.35-19.73-20.64Zm17.46,15.47l-9.49-21.59h-11.14l20.63,21.59Zm13.05,5.18l-3.12,8.35,11.42-10.19,11.44-18.8-19.73,20.65Zm13.23-6.25l22.97-20.51h-10.5l-12.48,20.51Zm-19.76-20.51h-13.93l10.07,22.9,3.86-22.9ZM16.89.16l-4.37,3.35-.46,8.72,14.62-7.26L16.89.16Zm20.28-.16h-16.16l7.89,3.87,8.27-3.87ZM10.54,5.03L.33,12.85h9.79l.42-7.82Z"/>
  </g>
</svg>